<?xml version="1.0" standalone="no"?>
<!DOCTYPE svg PUBLIC "-//W3C//DTD SVG 20010904//EN"
 "http://www.w3.org/TR/2001/REC-SVG-20010904/DTD/svg10.dtd">
<svg version="1.0" xmlns="http://www.w3.org/2000/svg"
 width="700.000000pt" height="700.000000pt" viewBox="0 0 700.000000 700.000000"
 preserveAspectRatio="xMidYMid meet">
<metadata>
Created by potrace 1.11, written by Peter Selinger 2001-2013
</metadata>
<g transform="translate(0.000000,700.000000) scale(0.100000,-0.100000)"
fill="#000000" stroke="none">
<path d="M450 3500 l0 -3050 3050 0 3050 0 0 3050 0 3050 -3050 0 -3050 0 0
-3050z m2000 2000 l0 -950 -950 0 -950 0 0 950 0 950 950 0 950 0 0 -950z
m2000 0 l0 -950 -950 0 -950 0 0 950 0 950 950 0 950 0 0 -950z m2000 0 l0
-950 -950 0 -950 0 0 950 0 950 950 0 950 0 0 -950z m-4000 -2000 l0 -950
-950 0 -950 0 0 950 0 950 950 0 950 0 0 -950z m2000 0 l0 -950 -950 0 -950 0
0 950 0 950 950 0 950 0 0 -950z m2000 0 l0 -950 -950 0 -950 0 0 950 0 950
950 0 950 0 0 -950z m-4000 -2000 l0 -950 -950 0 -950 0 0 950 0 950 950 0
950 0 0 -950z m2000 0 l0 -950 -950 0 -950 0 0 950 0 950 950 0 950 0 0 -950z
m2000 0 l0 -950 -950 0 -950 0 0 950 0 950 950 0 950 0 0 -950z"/>
<path d="M3325 6280 c-296 -66 -522 -289 -601 -590 -29 -112 -27 -298 5 -405
82 -277 289 -479 571 -560 90 -26 297 -26 395 -1 290 76 501 290 583 591 23
84 22 297 -2 385 -114 418 -533 673 -951 580z"/>
<path d="M5340 4284 c-294 -63 -533 -285 -611 -570 -40 -149 -33 -336 20 -487
84 -241 297 -434 556 -503 96 -26 292 -26 390 0 305 82 531 323 590 630 18 90
13 260 -10 346 -62 235 -228 430 -449 530 -37 16 -66 27 -66 23 0 -3 -6 -1
-12 4 -45 35 -294 52 -408 27z"/>
<path d="M1323 2280 c-219 -50 -417 -199 -523 -395 -74 -136 -100 -247 -95
-410 4 -126 19 -198 68 -307 103 -231 343 -417 587 -456 88 -14 261 -7 335 12
271 74 479 270 567 536 28 87 31 107 32 230 0 101 -4 153 -18 205 -74 282
-275 487 -561 575 -99 31 -280 35 -392 10z"/>
<path d="M3390 2294 c-214 -33 -419 -158 -540 -329 -169 -238 -196 -546 -69
-811 103 -217 291 -368 544 -435 75 -21 283 -17 370 5 281 73 488 276 576 566
31 100 33 310 5 410 -81 282 -279 484 -561 570 -67 21 -255 34 -325 24z"/>
<path d="M5350 2285 c-305 -58 -547 -286 -626 -590 -19 -74 -25 -253 -12 -333
36 -212 170 -414 353 -533 63 -41 164 -85 240 -105 74 -20 250 -26 335 -11
320 53 581 313 645 642 19 95 12 270 -13 355 -85 284 -278 477 -562 562 -81
24 -268 31 -360 13z"/>
</g>
</svg>
